<svg height="15" viewBox="0 0 15 15" width="15" xmlns="http://www.w3.org/2000/svg"><path d="m7.44 3c4.10901 0 7.44 3.33099 7.44 7.44s-3.33099 7.44-7.44 7.44c-4.10709-.00462-7.43538-3.33291-7.44-7.44 0-4.10901 3.33099-7.44 7.44-7.44zm.81 10h-1.5c-.1380625 0-.25.1119375-.25.25v1.5c0 .1380625.1119375.25.25.25h1.5c.1380625 0 .25-.1119375.25-.25v-1.5c0-.1380625-.1119375-.25-.25-.25zm0-7h-1.5c-.1380625 0-.25.08439267-.25.18848168v5.62303662c0 .104089.1119375.1884817.25.1884817h1.5c.1380625 0 .25-.0843927.25-.1884817v-5.62303662c0-.10408901-.1119375-.18848168-.25-.18848168z" fill="#2d415c" transform="translate(0 -3)"/></svg>