<svg height="38" viewBox="0 0 39 38" width="39" xmlns="http://www.w3.org/2000/svg"><path d="m6.22818765 0c-3.44278518 0-6.22818765 2.72472667-6.22818765 6.08861333v25.82353337c0 3.3612266 2.78540247 6.0874733 6.22818765 6.0874733h26.42498765c3.4400889 0 6.2270321-2.72612 6.2270321-6.0874733v-.2642267c-.1161975-.04712-10.1048197-4.1192-15.1818173-6.50522-3.425195 4.1197067-7.8431407 6.6190933-12.4301827 6.6190933-7.75660246 0-10.39062715-6.6348-6.71788641-11.0022666.8008-.9521534 2.1630716-1.8617467 4.27735308-2.3709467 3.30745683-.7942 8.57114073.4959 13.50459263 2.0870867.8874666-1.5977734 1.6339555-3.3574267 2.1900345-5.2309534h-15.20325922v-1.5048h7.83941732v-2.6986333h-9.49494325v-1.50581333h9.49494325v-3.8494s0-.64840667.6722765-.64840667h3.8323358v4.49768h9.3865778v1.5061933h-9.3865778v2.69838h7.6618469c-.7331358 2.9356267-1.846321 5.6378067-3.2437728 8.0098934 2.3253629.8220666 4.4126815 1.6018266 5.968316 2.1110266 5.1888297 1.6969534 6.6431605 1.9043067 6.8307457 1.9259667v-19.69806c0-3.36388667-2.7866864-6.08874-6.2266469-6.08874h-26.42498766zm4.26361485 20.5884c-.3329284.0038-.66739756.0215333-1.0043062.05396-.97130865.09538-2.79490371.5142667-3.79189136 1.3762333-2.98826667 2.54714-1.19972346 7.2035334 4.84845436 7.2035334 3.5158419 0 7.0287308-2.19678 9.7883259-5.71444-3.5578272-1.6967-6.6221037-2.9557667-9.8405827-2.9192867z" fill="#00a1e9"/></svg>